<?xml version="1.0" standalone="no"?>
<!DOCTYPE svg PUBLIC "-//W3C//DTD SVG 20010904//EN"
 "http://www.w3.org/TR/2001/REC-SVG-20010904/DTD/svg10.dtd">
<svg version="1.0" xmlns="http://www.w3.org/2000/svg"
 width="1317.000000pt" height="1317.000000pt" viewBox="0 0 1317.000000 1317.000000"
 preserveAspectRatio="xMidYMid meet">

<g transform="translate(0.000000,1317.000000) scale(0.100000,-0.100000)"
fill="#000000" stroke="none">
<path d="M5187 11822 l-1317 -1318 0 -1330 -1 -1329 -1290 -1297 -1291 -1298
22 -27 c12 -16 593 -602 1291 -1305 l1269 -1276 0 -1321 0 -1321 2645 0 2645
0 0 1328 0 1327 491 490 c269 270 850 853 1289 1296 l799 806 -1289 1295
-1290 1296 0 1334 0 1333 -1318 1318 c-724 724 -1322 1317 -1327 1317 -6 0
-603 -593 -1328 -1318z m2128 -463 c440 -430 892 -872 1003 -983 l204 -201
-11 -3755 c-6 -2065 -14 -4193 -17 -4728 l-7 -972 -1973 0 -1974 0 0 4733 0
4732 982 977 c541 537 985 977 988 977 3 1 365 -350 805 -780z m-3445 -6116
l0 -1748 -861 860 c-473 473 -865 868 -871 879 -9 16 98 127 858 887 478 478
870 869 871 869 2 0 3 -786 3 -1747z m7030 1 c0 -5 -391 -401 -870 -879 l-870
-870 0 1750 0 1750 870 -871 c479 -479 870 -875 870 -880z"/>
</g>
</svg>
